<?xml version="1.0" standalone="no"?>
<!DOCTYPE svg PUBLIC "-//W3C//DTD SVG 20010904//EN"
 "http://www.w3.org/TR/2001/REC-SVG-20010904/DTD/svg10.dtd">
<svg version="1.0" xmlns="http://www.w3.org/2000/svg"
 width="289.000000pt" height="242.000000pt" viewBox="0 0 289.000000 242.000000"
 preserveAspectRatio="xMidYMid meet">

<g transform="translate(0.000000,242.000000) scale(0.100000,-0.100000)"
fill="#000000" stroke="none">
<path d="M1210 2361 c-53 -6 -55 -7 -58 -38 -2 -18 -6 -33 -9 -33 -4 0 -25 11
-47 24 -41 24 -42 24 -119 9 l-77 -16 0 -53 c0 -29 5 -65 12 -79 l11 -25 548
0 549 0 15 36 c8 20 15 56 15 79 l0 42 -80 16 -79 16 -46 -25 -45 -26 0 35 0
34 -77 7 c-78 6 -78 6 -105 -24 -37 -40 -68 -40 -68 0 l0 30 -75 0 -74 0 -7
-35 c-3 -19 -12 -35 -18 -35 -7 0 -27 16 -46 35 -19 19 -41 34 -49 33 -9 -1
-41 -4 -71 -7z m320 -36 c0 -33 2 -35 34 -35 18 0 48 -3 65 -6 30 -6 31 -6 31
30 0 39 0 40 74 30 44 -6 46 -8 46 -39 0 -31 2 -33 48 -39 26 -4 55 -9 65 -12
14 -4 17 1 17 30 0 34 0 34 33 26 17 -4 44 -11 60 -14 23 -5 27 -12 27 -39 0
-41 -10 -77 -21 -77 -5 0 -9 13 -9 29 0 31 -21 46 -39 28 -6 -6 -11 -19 -11
-29 0 -21 1 -21 -110 -5 -83 13 -85 14 -90 42 -7 41 -44 42 -48 2 -3 -24 -7
-28 -25 -23 -12 3 -57 6 -99 6 -58 0 -78 3 -78 13 0 7 -6 22 -14 32 -12 16
-16 17 -30 6 -9 -7 -16 -22 -16 -32 0 -17 -9 -19 -90 -19 -49 0 -93 0 -97 -1
-5 0 -10 10 -13 23 -8 34 -44 31 -48 -4 -4 -30 -11 -34 -97 -43 -33 -3 -68 -8
-77 -11 -12 -4 -17 2 -20 23 -2 20 -9 28 -23 28 -15 0 -21 -8 -23 -32 -2 -18
-8 -33 -13 -33 -13 0 -29 44 -29 80 0 31 7 35 74 45 44 7 46 6 46 -18 0 -35 6
-37 73 -25 56 10 57 10 57 44 0 29 4 34 23 34 12 0 39 3 60 6 36 6 37 6 37
-24 0 -17 4 -33 8 -36 5 -3 34 -2 65 1 57 6 57 6 57 39 l0 34 60 0 60 0 0 -35z"/>
<path d="M1310 2063 l-355 -3 -163 -163 -162 -163 35 -69 c111 -219 125 -458
40 -667 -66 -162 -88 -331 -61 -458 12 -51 17 -119 16 -212 l-1 -138 24 0 c13
0 48 -8 78 -17 l54 -17 -75 -7 c-42 -4 -113 -21 -158 -38 l-82 -30 16 32 c9
18 32 51 51 74 32 40 33 42 14 53 -11 5 -35 10 -53 10 -19 0 -39 5 -46 12 -10
9 -16 9 -28 -3 -14 -15 -9 -17 46 -22 34 -4 66 -9 71 -13 5 -3 -4 -22 -20 -43
-32 -41 -67 -108 -60 -116 3 -2 33 7 67 21 82 33 164 47 239 41 l61 -5 -5 55
-6 55 41 -26 c64 -40 149 -64 268 -75 135 -12 163 -20 248 -72 l68 -41 27 20
c80 59 168 86 307 97 93 7 149 22 222 59 62 32 64 32 58 4 -16 -73 -21 -69 89
-72 81 -2 113 -8 170 -30 116 -45 110 -46 81 11 -13 28 -37 64 -51 81 -14 17
-22 33 -18 35 5 3 36 8 71 12 34 4 62 11 62 16 0 5 -4 9 -8 9 -5 0 -17 6 -27
14 -19 13 -18 16 25 63 25 26 54 60 65 74 23 29 75 66 75 53 0 -5 -14 -21 -32
-35 l-31 -26 54 -18 c57 -18 77 -31 67 -41 -4 -3 -32 4 -63 15 l-57 21 7 -40
c8 -48 -8 -54 -23 -7 l-10 32 -1 -31 c-1 -21 8 -40 30 -62 17 -18 35 -32 40
-32 9 0 23 37 24 60 0 11 16 16 62 20 l62 5 -21 33 c-11 19 -32 38 -46 43
l-25 10 22 22 c11 13 21 32 21 43 0 30 12 41 45 40 26 -1 30 3 29 24 -1 14 -4
32 -8 41 -5 12 -1 18 19 23 14 4 39 15 56 25 l30 19 -37 23 c-21 13 -49 22
-62 21 -19 -2 -23 2 -17 16 8 19 9 25 7 70 -2 32 -2 32 -30 18 -16 -8 -34 -22
-41 -30 -23 -28 -31 -18 -31 38 0 30 -4 57 -8 60 -4 2 -6 -11 -4 -30 2 -19 1
-55 -3 -81 l-7 -46 -17 39 c-10 21 -28 48 -40 59 -19 16 -24 17 -32 5 -5 -8
-12 -27 -15 -41 -6 -26 -8 -27 -65 -22 -32 3 -59 3 -59 0 0 -16 45 -79 63 -88
20 -11 20 -12 1 -28 -17 -13 -44 -61 -44 -76 0 -10 73 -4 103 8 34 15 64 44
54 53 -3 3 -16 -1 -29 -10 -40 -28 -44 -16 -5 18 l37 33 -55 24 c-30 13 -55
30 -55 37 0 18 13 15 61 -13 24 -14 47 -25 52 -25 4 0 4 19 1 42 -5 30 -4 39
4 34 7 -4 12 -16 12 -26 0 -10 5 -22 11 -26 18 -11 1 -81 -43 -173 l-40 -86
-12 32 c-11 31 -12 32 -36 18 -14 -8 -30 -17 -36 -20 -5 -3 -30 13 -54 37
l-45 42 -7 -50 c-4 -28 -3 -53 2 -58 17 -17 11 -26 -19 -26 -16 0 -34 -7 -41
-15 -7 -8 -16 -12 -21 -9 -5 3 -9 -37 -9 -90 0 -53 -3 -96 -7 -96 -5 0 -49 16
-99 34 -216 82 -430 119 -689 119 -260 0 -472 -36 -690 -118 -51 -19 -96 -35
-99 -35 -4 0 -5 53 -4 118 l3 117 58 28 c77 36 205 73 347 99 99 19 152 22
385 22 233 0 286 -3 385 -22 200 -37 393 -103 407 -138 14 -36 45 119 46 226
1 125 -12 192 -63 321 -91 229 -79 454 35 684 l34 70 -167 168 -167 167 -155
-2 c-85 -2 -315 -4 -510 -5z m807 -185 l152 -153 -39 -80 c-61 -124 -83 -236
-78 -397 4 -113 9 -145 32 -208 75 -209 79 -222 84 -341 3 -90 1 -129 -12
-173 -9 -32 -20 -56 -24 -54 -140 72 -340 118 -602 139 -299 23 -702 -29 -883
-115 l-47 -23 -16 55 c-12 42 -15 84 -12 171 4 106 8 128 51 251 60 176 68
215 69 335 0 127 -29 252 -82 360 l-39 80 152 153 152 152 495 0 495 0 152
-152z m568 -1197 l-16 -31 61 0 c33 0 60 -4 60 -9 0 -10 -49 -21 -92 -21 l-29
0 27 -35 c30 -39 23 -47 -13 -13 -29 27 -32 4 -3 -27 l20 -22 -53 -14 -53 -15
26 75 c38 105 49 133 63 149 18 23 20 -3 2 -37z m-251 -259 l24 -47 18 32 c18
32 34 43 34 24 0 -22 -85 -121 -103 -121 -19 0 -20 1 -2 20 18 20 17 20 -19
20 -20 0 -35 4 -32 9 3 4 17 6 31 4 52 -10 58 2 30 56 -14 28 -25 53 -25 56 0
16 23 -11 44 -53z m-54 -115 c35 -18 64 -36 64 -42 1 -5 -20 -13 -46 -16 -69
-10 -73 -16 -38 -55 16 -19 39 -53 50 -75 l21 -40 -31 16 c-46 24 -176 55
-234 56 l-51 1 30 13 c17 7 51 16 78 20 l47 7 0 78 c0 75 1 77 23 73 13 -3 52
-19 87 -36z m-625 13 c135 -23 304 -64 299 -72 -8 -13 -82 -48 -132 -64 -26
-7 -85 -16 -132 -19 -108 -8 -179 -28 -257 -70 l-63 -34 -72 39 c-76 40 -124
52 -288 69 -77 8 -109 17 -170 48 l-75 37 95 23 c95 23 245 49 330 57 76 7
401 -2 465 -14z"/>
<path d="M1303 1723 c-25 -3 -33 -9 -33 -24 0 -23 -9 -24 -36 -5 -15 11 -30
12 -72 4 l-52 -11 0 -41 c0 -50 18 -88 48 -101 12 -5 22 -12 22 -15 0 -3 -42
-140 -93 -305 l-93 -300 -33 -9 c-19 -6 -38 -20 -47 -37 -14 -28 -14 -29 13
-24 191 31 328 40 583 40 215 -1 294 -4 363 -18 51 -9 107 -14 132 -10 40 5
43 7 32 24 -7 11 -23 23 -36 27 -22 7 -33 37 -112 293 -108 349 -103 329 -85
329 19 0 58 85 54 118 -3 22 -11 28 -52 38 -41 11 -54 10 -77 -2 -36 -18 -39
-18 -39 5 0 15 -10 20 -46 26 -41 6 -49 4 -73 -19 -29 -27 -41 -26 -41 6 0 15
-8 18 -50 18 -43 0 -50 -3 -50 -19 0 -31 -15 -33 -40 -6 -13 14 -31 24 -39 23
-9 0 -31 -3 -48 -5z m217 -28 c0 -22 4 -25 40 -25 33 0 40 3 40 20 0 17 7 20
40 20 36 0 40 -2 40 -25 0 -14 4 -25 9 -25 5 0 23 -3 40 -6 27 -6 31 -4 31 16
0 19 4 21 33 15 17 -4 35 -9 40 -12 10 -6 9 -61 -3 -68 -5 -3 -59 1 -120 10
-142 19 -362 19 -476 0 -48 -9 -94 -13 -101 -11 -14 6 -18 62 -5 69 4 3 22 8
40 12 28 6 32 4 32 -14 0 -16 6 -21 24 -21 37 0 56 10 56 30 0 20 19 30 56 30
17 0 24 -6 24 -20 0 -17 7 -20 40 -20 36 0 40 3 40 25 0 23 4 25 40 25 36 0
40 -2 40 -25z m-40 -140 c0 -24 -2 -25 -75 -25 -41 0 -75 3 -75 8 1 19 19 31
55 35 94 9 95 9 95 -18z m114 19 c41 -6 46 -10 46 -32 0 -20 -4 -23 -22 -18
-13 3 -47 6 -75 6 -50 0 -53 2 -53 25 0 28 16 31 104 19z m129 -19 c27 -4 48
-13 52 -22 8 -24 1 -26 -64 -18 -57 6 -61 9 -61 32 0 17 4 23 14 20 7 -3 34
-8 59 -12z m-403 -13 c0 -14 -13 -20 -65 -28 -36 -5 -65 -7 -65 -4 0 16 28 39
50 43 59 10 80 7 80 -11z m242 -47 c5 -25 5 -25 -73 -25 -71 0 -79 2 -79 19 0
23 16 28 91 30 53 1 57 -1 61 -24z m-162 -5 c0 -15 -7 -20 -27 -20 -16 0 -52
-3 -80 -6 -49 -6 -53 -5 -53 14 0 22 17 26 118 30 36 2 42 -1 42 -18z m298 14
c18 -4 32 -14 35 -25 4 -16 0 -19 -36 -18 -74 1 -122 13 -125 32 -3 14 4 17
46 17 27 0 63 -3 80 -6z m-471 -38 c-3 -7 -17 -16 -32 -18 -20 -4 -25 -2 -21
9 3 8 6 18 6 23 0 11 44 17 48 7 2 -4 2 -14 -1 -21z m553 24 c4 0 10 -9 13
-20 4 -16 0 -20 -18 -20 -21 0 -35 17 -35 42 0 6 7 7 16 4 9 -3 19 -6 24 -6z
m-300 -49 c0 -20 -40 -31 -117 -31 -36 0 -43 3 -43 19 0 16 8 21 48 24 109 8
112 8 112 -12z m220 5 c81 -6 107 -15 113 -38 5 -18 2 -20 -25 -14 -17 3 -45
6 -64 6 -18 0 -40 7 -48 16 -9 8 -16 11 -16 5 0 -7 -25 -11 -62 -11 -84 0
-108 8 -108 32 0 22 -7 22 210 4z m-390 -3 c-1 -22 -22 -34 -76 -43 -80 -13
-83 -13 -77 10 4 14 16 21 47 24 39 5 82 12 99 15 4 0 7 -2 7 -6z m80 -62 c0
-16 -10 -21 -57 -26 -32 -3 -70 -9 -85 -11 -23 -5 -28 -2 -28 15 0 22 16 29
90 34 25 2 53 4 63 5 11 1 17 -5 17 -17z m180 0 c0 -18 -7 -20 -85 -20 -78 0
-85 2 -85 20 0 17 7 19 85 19 78 0 85 -2 85 -19z m176 6 c1 -1 5 -12 9 -25 7
-23 5 -23 -37 -18 -143 18 -138 16 -138 38 0 20 3 20 83 13 45 -4 83 -7 83 -8z
m-536 -20 c0 -20 -22 -37 -47 -37 -16 0 -23 6 -23 19 0 11 6 22 13 24 24 10
57 7 57 -6z m606 5 c6 -4 14 -15 17 -26 7 -16 4 -18 -25 -12 -30 6 -47 20 -48
39 0 9 42 9 56 -1z m-150 -36 c1 0 5 -11 8 -23 7 -20 4 -23 -22 -23 -24 0 -82
37 -82 53 0 4 92 -3 96 -7z m-285 -15 c-10 -10 -33 -22 -50 -26 -28 -6 -31 -4
-31 19 0 24 3 26 50 26 49 0 50 0 31 -19z m411 3 c35 -4 49 -11 54 -26 3 -11
4 -21 2 -23 -8 -8 -153 17 -160 28 -17 27 -8 39 25 34 17 -3 53 -9 79 -13z
m-502 -1 c-1 -22 -22 -32 -89 -42 -40 -6 -76 -10 -78 -7 -3 2 -2 14 2 25 4 14
17 21 43 24 70 7 122 7 122 0z m48 -68 c-6 -14 -18 -25 -27 -25 -9 0 -40 -3
-69 -7 -52 -6 -54 -5 -50 18 3 21 9 25 63 30 33 3 68 6 77 7 15 2 16 -1 6 -23z
m389 19 c41 -5 52 -11 57 -27 3 -12 3 -23 1 -25 -2 -2 -35 -1 -73 3 -60 6 -71
10 -81 31 -10 22 -8 24 17 24 15 0 50 -3 79 -6z m-547 -26 c0 -23 -14 -35 -47
-43 -29 -6 -33 -4 -33 14 0 11 8 25 18 30 24 14 62 13 62 -1z m671 2 c32 -18
23 -40 -16 -40 -19 0 -35 4 -35 9 0 5 -3 16 -6 25 -7 19 26 22 57 6z m-167
-36 c9 -3 16 -17 16 -30 0 -20 -5 -24 -30 -24 -27 0 -30 3 -30 30 0 30 11 37
44 24z m-424 -29 c0 -14 -6 -25 -12 -26 -7 0 -49 -6 -93 -13 -44 -8 -81 -13
-83 -11 -1 1 2 14 7 28 10 25 34 31 169 46 7 0 12 -10 12 -24z m70 0 c0 -21
-5 -25 -29 -25 -25 0 -28 3 -23 25 3 18 11 25 28 25 19 0 24 -5 24 -25z m499
12 c42 -9 56 -17 63 -36 l8 -23 -67 6 c-113 11 -123 15 -123 42 0 21 5 24 33
23 17 0 56 -6 86 -12z m-43 -63 c24 -3 33 -11 36 -29 6 -28 -3 -30 -110 -19
-53 6 -61 9 -65 30 -2 13 -2 26 1 28 4 5 76 0 138 -10z m-463 -18 c-4 -21 -12
-24 -75 -31 -39 -3 -77 -9 -85 -12 -11 -4 -14 1 -11 23 3 32 26 40 124 43 49
1 51 0 47 -23z m-187 -20 c-5 -19 -15 -27 -42 -32 -43 -8 -47 -4 -35 29 8 19
18 26 43 29 42 4 42 4 34 -26z m765 15 c4 -3 10 -16 14 -29 6 -22 5 -23 -32
-16 -45 8 -39 3 -47 36 -6 27 -5 27 26 21 18 -3 36 -8 39 -12z m-193 -41 c7 0
12 -13 12 -30 0 -31 -7 -34 -47 -24 -17 5 -23 14 -23 36 0 27 3 30 23 24 12
-3 28 -6 35 -6z m-468 -29 c0 -28 0 -28 -92 -41 -51 -7 -99 -15 -107 -18 -11
-4 -12 1 -7 24 4 16 9 31 12 33 2 2 45 9 96 16 51 7 94 13 96 14 1 1 2 -12 2
-28z m80 5 c0 -18 -7 -25 -32 -30 -38 -7 -38 -8 -31 27 4 22 11 27 34 27 24 0
29 -4 29 -24z m528 10 c81 -15 77 -13 87 -44 7 -23 7 -23 -64 -16 -122 12
-136 16 -139 47 -4 32 4 33 116 13z m-538 -70 c0 -18 -17 -23 -112 -32 -67 -5
-78 -4 -78 9 0 12 15 17 63 21 75 7 121 12 125 15 1 0 2 -5 2 -13z m513 -2
c17 -4 27 -12 27 -22 0 -16 -9 -16 -95 -8 -84 8 -95 11 -95 28 0 18 5 19 68
13 37 -3 79 -9 95 -11z m125 -27 c19 -15 14 -27 -10 -27 -43 0 -68 12 -68 31
0 15 5 17 33 12 17 -3 38 -10 45 -16z m-844 -1 c-8 -21 -94 -38 -94 -18 0 18
26 32 62 32 28 0 36 -4 32 -14z"/>
<path d="M1415 830 c69 -11 366 -10 305 1 -25 4 -115 7 -200 7 -112 -1 -141
-3 -105 -8z"/>
<path d="M2376 1546 c7 -29 2 -31 -27 -16 -15 8 -19 7 -19 -4 0 -8 13 -17 30
-21 17 -4 32 -15 35 -26 9 -28 1 -33 -34 -21 -27 9 -31 9 -32 -6 -2 -22 -1
-24 5 -42 4 -11 -7 -20 -40 -34 l-46 -19 29 -23 c15 -13 37 -23 48 -21 11 1
19 -2 18 -8 -1 -5 -2 -14 -3 -20 -5 -24 1 -65 9 -65 5 0 26 15 45 34 26 24 36
42 36 65 0 17 5 31 11 31 7 0 8 11 4 29 -3 17 -2 32 4 36 7 4 11 -3 11 -17 0
-47 15 -52 54 -18 20 18 40 29 44 25 4 -4 -10 -21 -31 -38 -20 -18 -37 -35
-37 -39 0 -3 14 -9 30 -13 17 -4 27 -11 24 -16 -3 -6 -20 -7 -36 -4 -21 5 -28
4 -24 -4 8 -12 74 -15 100 -5 22 8 20 31 -4 46 -26 16 -25 21 5 66 14 20 25
39 25 42 0 12 -77 5 -92 -7 -17 -14 -28 -8 -28 16 0 9 -12 27 -25 40 -24 22
-25 25 -9 42 10 11 12 19 7 19 -6 0 -16 -7 -23 -15 -17 -20 -23 -19 -35 7 -15
33 -37 36 -29 4z m64 -44 c0 -5 -7 -17 -16 -28 -8 -10 -14 -14 -11 -9 2 6 7
18 10 28 7 17 17 23 17 9z m-36 -88 c10 -25 1 -27 -19 -4 -15 17 -16 20 -3 20
9 0 19 -7 22 -16z m12 -83 c-20 -37 -29 -40 -20 -6 6 24 4 25 -40 25 -25 0
-46 4 -46 9 0 11 101 19 113 10 5 -4 1 -21 -7 -38z"/>
<path d="M271 1444 c9 -11 35 -55 57 -99 26 -52 49 -86 67 -95 26 -14 27 -17
10 -77 -3 -10 4 2 15 27 13 29 52 75 108 127 78 74 83 81 52 71 -80 -25 -92
-33 -125 -70 l-34 -40 -14 33 c-21 50 -64 97 -111 121 -38 19 -40 19 -25 2z"/>
<path d="M264 1397 c3 -12 10 -47 17 -76 12 -59 45 -101 79 -101 26 0 26 12
-1 36 -12 10 -36 52 -55 92 -32 70 -52 94 -40 49z"/>
<path d="M400 1401 c-23 -15 1 -32 33 -23 14 4 27 12 27 17 1 14 -41 17 -60 6z"/>
<path d="M615 1380 c-11 -12 -48 -45 -83 -72 -53 -42 -92 -90 -92 -113 0 -13
58 -3 90 16 43 27 55 41 86 107 31 63 30 96 -1 62z"/>
<path d="M184 1265 c9 -20 24 -48 34 -63 33 -47 82 -154 82 -179 0 -12 4 -23
8 -23 5 0 0 -38 -12 -84 l-20 -83 -22 55 c-26 63 -61 103 -122 139 -45 27 -64
26 -37 0 8 -9 15 -20 15 -25 0 -6 16 -45 36 -87 39 -83 90 -149 109 -141 12 4
25 -53 25 -111 0 -24 -1 -23 -47 12 -48 36 -125 65 -176 65 -28 0 -28 -1 20
-39 27 -21 64 -57 82 -80 38 -48 113 -95 140 -88 14 3 23 -5 35 -30 9 -18 16
-35 16 -37 0 -2 -36 -7 -80 -10 -44 -4 -78 -11 -75 -17 3 -5 56 -24 118 -44
85 -26 122 -44 152 -71 l40 -35 -45 25 c-25 14 -98 43 -163 64 l-119 39 42
-42 c66 -67 123 -93 207 -96 40 -1 78 3 85 8 7 6 42 22 78 36 36 15 59 27 52
27 -9 0 -11 10 -6 35 4 25 0 53 -17 97 l-23 61 -17 -64 c-9 -35 -20 -85 -24
-112 -4 -28 -10 -45 -16 -41 -12 7 -5 63 17 143 8 29 13 55 11 58 -7 6 -47
-62 -67 -113 l-17 -46 -46 52 c-29 32 -47 62 -47 76 0 30 27 85 86 177 24 37
40 67 36 67 -4 0 -33 -24 -65 -53 -40 -36 -63 -67 -76 -100 l-18 -49 -21 50
c-33 76 -45 177 -33 267 6 42 14 82 18 88 15 24 81 75 162 125 47 30 93 61
101 69 25 26 -103 9 -156 -21 l-43 -24 10 25 c18 49 7 37 -27 -29 -19 -38 -36
-68 -37 -68 -2 0 -2 14 1 30 13 89 -23 158 -115 221 l-44 31 15 -37z"/>
<path d="M154 1220 c8 -100 24 -140 71 -187 23 -24 48 -43 54 -43 24 0 -12 92
-90 225 l-41 70 6 -65z"/>
<path d="M2526 1228 c-4 -19 -2 -34 4 -36 5 -2 10 -19 10 -37 0 -24 6 -38 20
-45 23 -12 25 -7 9 21 -6 11 -8 25 -6 32 3 7 10 -1 16 -17 l12 -29 37 36 c21
21 41 37 45 37 12 0 -12 -41 -41 -72 l-26 -28 37 0 c46 0 50 -20 5 -21 -31 0
-32 -1 -11 -11 18 -9 32 -7 63 7 22 10 40 22 40 26 0 7 -25 26 -58 44 -1 1 5
18 13 38 23 57 20 67 -17 61 -18 -3 -40 -14 -48 -23 -13 -16 -17 -15 -47 16
-19 18 -37 33 -42 33 -5 0 -11 -15 -15 -32z"/>
<path d="M570 1104 c-19 -14 -56 -36 -81 -49 -25 -13 -68 -44 -95 -69 l-49
-45 44 -1 c74 0 158 66 210 168 14 27 14 27 -29 -4z"/>
<path d="M2526 1054 c-3 -9 -6 -27 -6 -40 0 -22 -4 -24 -53 -24 -30 0 -56 -3
-60 -6 -10 -10 47 -74 66 -74 21 0 22 -8 3 -29 -18 -22 -29 -81 -14 -81 27 0
89 25 104 42 20 22 11 36 -11 18 -9 -7 -19 -10 -23 -6 -4 4 0 13 8 19 8 7 21
20 28 29 12 15 7 18 -42 34 -31 10 -56 21 -56 26 0 10 -5 10 59 -7 l53 -14 -6
41 c-6 35 -5 39 8 29 9 -8 16 -8 20 -2 4 5 -9 21 -27 35 -40 30 -43 31 -51 10z"/>
<path d="M61 961 c-2 -106 48 -181 130 -198 l34 -6 -29 34 c-16 19 -46 71 -67
117 -21 45 -42 82 -48 82 -5 0 -12 8 -14 18 -3 9 -5 -12 -6 -47z"/>
<path d="M490 910 c-102 -17 -158 -65 -175 -150 l-7 -35 38 39 c22 21 71 61
111 87 39 27 74 53 78 59 3 5 5 9 3 9 -2 -1 -23 -5 -48 -9z"/>
<path d="M458 829 c-47 -32 -96 -72 -108 -89 l-21 -30 26 0 c40 0 92 28 124
66 25 31 77 115 69 113 -2 0 -42 -27 -90 -60z"/>
<path d="M489 653 c-58 -96 -69 -118 -80 -155 -8 -29 -7 -30 19 -24 77 19 114
81 110 185 l-3 71 -46 -77z"/>
<path d="M40 691 c0 -6 11 -34 24 -63 37 -82 96 -128 166 -128 44 0 43 14 -4
38 -23 13 -66 50 -95 82 -52 60 -91 90 -91 71z"/>
<path d="M1390 541 c0 -5 9 -11 20 -14 17 -4 20 -14 20 -56 0 -39 4 -51 15
-51 12 0 15 13 15 55 0 49 2 55 21 55 11 0 17 5 14 10 -8 12 -105 13 -105 1z"/>
<path d="M1537 543 c-4 -3 -7 -30 -7 -59 0 -44 4 -55 21 -64 49 -27 89 9 89
83 0 26 -4 37 -15 37 -11 0 -15 -12 -15 -44 0 -44 -19 -74 -40 -61 -5 3 -10
31 -10 61 0 50 -7 64 -23 47z"/>
<path d="M1218 533 c-31 -5 -38 -23 -9 -23 15 0 20 -10 25 -54 5 -38 11 -53
20 -50 9 3 11 21 8 59 -4 46 -2 55 12 55 9 0 16 5 16 10 0 10 -20 11 -72 3z"/>
<path d="M1332 478 c4 -78 28 -95 28 -20 0 55 -7 82 -22 82 -5 0 -8 -28 -6
-62z"/>
<path d="M1685 506 c-3 -17 -6 -47 -8 -66 -2 -34 -1 -35 40 -38 33 -2 44 1 57
20 17 24 21 65 7 87 -5 7 -27 17 -50 21 -40 7 -41 7 -46 -24z m73 -29 c4 -33
-13 -57 -39 -57 -20 0 -23 10 -13 59 5 25 11 31 28 29 15 -2 22 -11 24 -31z"/>
<path d="M1078 513 c-31 -5 -33 -11 -17 -83 6 -28 16 -50 23 -50 8 0 12 9 9
24 -3 15 1 25 12 30 22 8 35 -1 35 -25 0 -11 7 -19 16 -19 13 0 15 6 9 28 -4
15 -9 40 -10 55 -2 28 -20 48 -40 45 -5 0 -22 -3 -37 -5z m52 -38 c0 -8 -4
-15 -9 -15 -5 0 -16 -3 -25 -6 -12 -4 -16 0 -16 15 0 16 6 21 25 21 16 0 25
-6 25 -15z"/>
<path d="M1835 498 c-10 -33 -22 -108 -17 -113 13 -13 21 -2 31 45 6 28 11 58
11 65 0 18 -19 20 -25 3z"/>
<path d="M1901 463 c-24 -90 -24 -96 -11 -91 8 2 19 22 25 44 l11 39 14 -53
c18 -69 39 -66 57 7 18 68 1 96 -18 30 l-12 -44 -16 49 c-20 62 -37 69 -50 19z"/>
<path d="M913 468 c-19 -24 -22 -48 -12 -75 12 -33 26 -43 61 -43 53 0 76 60
42 108 -17 25 -75 31 -91 10z m74 -37 c14 -30 1 -61 -27 -61 -25 0 -43 35 -35
67 8 32 45 28 62 -6z"/>
<path d="M798 433 c-21 -8 -38 -18 -38 -22 0 -3 8 -28 19 -56 22 -58 48 -76
38 -26 -6 27 -3 32 18 37 36 9 31 26 -7 22 -41 -4 -47 17 -8 30 16 6 30 16 30
21 0 14 -7 13 -52 -6z"/>
<path d="M2040 394 c-11 -31 -19 -58 -18 -59 16 -15 83 -34 91 -26 10 10 -28
31 -54 31 -11 0 -11 3 -3 24 4 11 11 13 31 5 31 -11 43 -12 43 0 0 5 -14 14
-32 20 -23 8 -29 14 -21 22 8 8 20 9 42 1 24 -9 31 -8 31 2 0 10 -59 36 -83
36 -3 0 -15 -25 -27 -56z"/>
</g>
</svg>
